<?xml version="1.0" encoding="UTF-8" standalone="no"?>
<!-- Created with Inkscape (http://www.inkscape.org/) -->

<svg
   version="1.1"
   id="svg18"
   width="1440"
   height="1440"
   viewBox="0 0 1440 1440"
   sodipodi:docname="Ficus y más....ai"
   xmlns:inkscape="http://www.inkscape.org/namespaces/inkscape"
   xmlns:sodipodi="http://sodipodi.sourceforge.net/DTD/sodipodi-0.dtd"
   xmlns="http://www.w3.org/2000/svg"
   xmlns:svg="http://www.w3.org/2000/svg">
  <defs
     id="defs22">
    <clipPath
       clipPathUnits="userSpaceOnUse"
       id="clipPath2920">
      <path
         d="M 0,1080 H 1080 V 0 H 0 Z"
         id="path2918" />
    </clipPath>
    <clipPath
       clipPathUnits="userSpaceOnUse"
       id="clipPath2928">
      <path
         d="M 1079.832,1100.755 H 0.811 v 1079.022 h 1079.021 z"
         id="path2926" />
    </clipPath>
    <clipPath
       clipPathUnits="userSpaceOnUse"
       id="clipPath2940">
      <path
         d="M -19.498,-1.173 H -1100.501 V 1079.83 H -19.498 Z"
         id="path2938" />
    </clipPath>
    <clipPath
       clipPathUnits="userSpaceOnUse"
       id="clipPath2964">
      <path
         d="M 0.438,1.707 H 1080 V 1080 H 0.438 Z"
         id="path2962" />
    </clipPath>
    <clipPath
       clipPathUnits="userSpaceOnUse"
       id="clipPath3004">
      <path
         d="M 0,1080 H 1080 V 0 H 0 Z"
         id="path3002" />
    </clipPath>
  </defs>
  <sodipodi:namedview
     id="namedview20"
     pagecolor="#505050"
     bordercolor="#eeeeee"
     borderopacity="1"
     inkscape:showpageshadow="0"
     inkscape:pageopacity="0"
     inkscape:pagecheckerboard="0"
     inkscape:deskcolor="#505050"
     showgrid="false"
     inkscape:zoom="0.048368068"
     inkscape:cx="52576.009"
     inkscape:cy="-3917.8741"
     inkscape:window-width="1920"
     inkscape:window-height="1016"
     inkscape:window-x="0"
     inkscape:window-y="0"
     inkscape:window-maximized="1"
     inkscape:current-layer="g2426" />
  <g
     id="g2912"
     inkscape:groupmode="layer"
     inkscape:label="Page 45"
     transform="matrix(1.3333333,0,0,-1.3333333,0,1440)">
    <g
       id="g2914">
      <g
         id="g2916"
         clip-path="url(#clipPath2920)">
        <g
           id="g2922">
          <g
             id="g2924"
             clip-path="url(#clipPath2928)">
            <g
               id="g2930"
               transform="translate(-89.5483,1658.1249)">
              <path
                 d="m 0,0 c 12.796,-98.837 -0.306,-175.124 -24.253,-267.29 -4.715,-18.147 -13.025,-28.991 -6.466,-48.283 3.219,-9.466 10.096,-17.271 19.056,-21.932 34.1,-17.739 123.847,78.786 161.139,120.479 30.086,33.635 76.941,115.786 90.874,101.111 24.523,-25.831 -71.668,-91.567 -126.924,-170.908 -44.058,-63.26 6.036,-121.168 47.571,-166.764 48.221,-52.936 71.979,-93.885 148.076,-112.676 104.868,-25.896 227.05,149.234 67.394,184.914 -69.117,15.447 -157.81,-1.785 -193.25,50.203 -68.822,100.956 152.755,148.345 123.707,280.781 -3.699,16.866 -41.729,61.809 -88.922,-9.359 -36.555,-55.123 -49.785,-68.608 -95.627,-125.872 -12.19,-15.228 -30.41,-28.537 -50.02,-28.584 -8.413,-0.02 -35.194,22.403 9.209,63.291 66.315,61.068 137.511,163.841 157.987,240.583 8.313,31.159 10.439,128.415 -58.993,143.001 -23.689,4.977 -47.876,0.213 -68.613,-10.552 C 20.814,174.726 -8.162,99.931 0,0"
                 style="fill:#544add;fill-opacity:1;fill-rule:nonzero;stroke:none"
                 id="path2932" />
            </g>
          </g>
        </g>
        <g
           id="g2934">
          <g
             id="g2936"
             clip-path="url(#clipPath2940)">
            <g
               id="g2942"
               transform="translate(-115.7153,659.9207)">
              <path
                 d="m 0,0 24.507,-131.17 c 0,0 58.825,127.551 59.531,128.149 L 291.226,39.014 116.014,80.754 206.564,184.881 63.285,113.338 19.651,209.279 3.894,124.406 -116.338,175.844 -13.923,65.06 -116.789,20.006 Z"
                 style="fill:#ff2c2c;fill-opacity:1;fill-rule:nonzero;stroke:none"
                 id="path2944" />
            </g>
            <g
               id="g2946"
               transform="translate(127.1363,442.5864)">
              <path
                 d="m 0,0 c 16.819,11.948 29.101,30.871 27.294,51.452 -7.032,80.075 -158.334,76.968 -253.109,37.887 -48.981,-20.217 -80.534,-78.107 -77.521,-131 10.544,-186.956 307.567,-216.651 326.898,-472.423 -5.544,-255.016 -542.944,-253.953 -713.769,-4.255 -0.915,1.163 -1.829,2.325 -2.699,3.479 -5.958,7.602 -11.839,14.876 -17.568,21.758 -17.366,21.135 -33.669,39.227 -49.009,54.704 -7.233,7.296 -14.352,13.985 -21.325,20.24 -26.61,23.653 -51.524,39.86 -74.838,50.305 7.376,40.68 30.089,82.004 54.065,125.759 6.834,12.557 13.968,25.509 20.64,38.411 4.267,8.198 35.479,41.479 39.422,49.872 95.229,-67.317 209.842,-126.74 212.623,-128.066 63.385,-29.18 112.378,-54.803 176.829,-82.373 29.634,-12.653 62.163,-17.712 93.823,-11.817 114.35,21.106 0.895,115.039 -88.854,166.518 -167.684,96.262 -91.353,362.753 109.731,403.844 C 113.447,313.574 459.249,-80.198 120.252,-313.513 30.198,-379.718 -314.27,-223.24 0,0"
                 style="fill:#f8ead1;fill-opacity:1;fill-rule:nonzero;stroke:none"
                 id="path2948" />
            </g>
          </g>
        </g>
      </g>
    </g>
    <path
       d="M 0.438,1.707 H 1080 V 1080 H 0.438 Z"
       style="fill:#f8ead1;fill-opacity:1;fill-rule:nonzero;stroke:none"
       id="path2950" />
    <path
       d="M 0.438,1.707 H 1080 V 1080 H 0.438 Z"
       style="fill:#f8ead1;fill-opacity:1;fill-rule:nonzero;stroke:none"
       id="path2952" />
    <g
       id="g2954"
       transform="translate(55.8378,141.7329)">
      <path
         d="m 0,0 78.407,-46.124 -79.894,-77.839 -0.893,-16.063 h 469.845 l -49.232,11.093 -27.847,44.903 -46.109,22.232 -76.972,-22.984 7.246,97.669 -51.442,10.479 -54.088,-5.559 -41.662,-7.055 -32.53,46.52 -107.186,28.703 z m 481.31,-140.026 h 116.969 l -47.278,12.912 z"
         style="fill:#ff2c2c;fill-opacity:1;fill-rule:nonzero;stroke:none"
         id="path2956" />
    </g>
    <g
       id="g2958">
      <g
         id="g2960"
         clip-path="url(#clipPath2964)">
        <g
           id="g2966"
           transform="translate(786.8795,983.6616)">
          <path
             d="m 0,0 c 18.31,11.825 24.604,31.089 12.207,45.584 -12.162,14.22 -34.331,14.305 -69.3,-0.157 -18.499,-7.327 -37.022,-14.309 -55.589,-20.668 -26.58,-9.103 -57.347,-21.844 -82.78,-9.561 -10.911,5.271 -31.486,51.178 51.777,76.191 124.352,37.356 281.286,125.667 356.124,212.188 30.387,35.13 94.372,159.777 13.612,222.388 -27.553,21.36 -61.884,30.416 -95.524,29.525 -147.906,-4.049 -232.532,-82.695 -284.874,-217.286 -45.65,-136.091 -110.652,-226.667 -199.699,-330.982 -17.533,-20.538 -36.575,-41.013 -40.224,-70.134 -1.79,-14.289 2.205,-28.73 10.877,-40.409 33.005,-44.447 232.697,54.455 309.241,79.595 C -47.425,-14.947 -21.713,-14.023 0,0"
             style="fill:#f8ead1;fill-opacity:1;fill-rule:nonzero;stroke:none"
             id="path2968" />
        </g>
        <g
           id="g2970"
           transform="translate(864.6617,242.0215)">
          <path
             d="m 0,0 c -1.365,4.052 -1.462,8.341 -3.574,12.093 -2.112,3.748 -3.16,8.258 -6.245,11.292 -2.978,2.928 -5.782,7.357 -9.875,9.24"
             style="fill:#f8ead1;fill-opacity:1;fill-rule:nonzero;stroke:none"
             id="path2972" />
        </g>
        <g
           id="g2974"
           transform="translate(53.9224,1080.5808)">
          <path
             d="m 0,0 -131.303,83.775 c 0,0 61.734,-151.883 61.68,-152.961 l -129.492,-210.051 175.352,115.97 16.465,-160.222 53.364,179.147 116.55,-39.372 -59.735,81.14 139.749,61.392 -176.094,1.136 43.688,123.583 z"
             style="fill:#ff2c2c;fill-opacity:1;fill-rule:nonzero;stroke:none"
             id="path2976" />
        </g>
        <g
           id="g2978"
           transform="translate(603.9693,1007.3789)">
          <path
             d="m 0,0 -31.93,-12.213 c 0,0 34.854,-8.955 35.037,-9.105 l 20.129,-50.281 2.455,46.078 30.41,-18.028 -24.624,32.816 22.17,15.412 -22.115,0.066 7.43,32.668 L 15.756,6.503 -0.333,30.354 Z"
             style="fill:#f8ead1;fill-opacity:1;fill-rule:nonzero;stroke:none"
             id="path2980" />
        </g>
        <g
           id="g2982"
           transform="translate(104.0601,1018.208)">
          <path
             d="m 0,0 c -16.634,2.046 -45.13,-69.86 -65.78,-13.604 -9.151,24.93 -24.322,9.185 -20.328,-1.152 C -56.86,-90.465 33.566,-4.756 0,0"
             style="fill:#f8ead1;fill-opacity:1;fill-rule:nonzero;stroke:none"
             id="path2984" />
        </g>
        <g
           id="g2986"
           transform="translate(984.8111,662.5234)">
          <path
             d="m 0,0 24.497,-131.115 c 0,0 58.801,127.498 59.506,128.096 L 291.104,38.998 115.966,80.721 206.478,184.803 63.26,113.291 19.644,209.191 3.893,124.354 -116.289,175.77 -13.917,65.033 -116.74,19.998 Z"
             style="fill:#ff2c2c;fill-opacity:1;fill-rule:nonzero;stroke:none"
             id="path2988" />
        </g>
        <g
           id="g2990"
           transform="translate(1227.561,445.2805)">
          <path
             d="m 0,0 c 16.812,11.942 29.089,30.858 27.282,51.43 -7.028,80.042 -158.266,76.936 -253.003,37.871 -48.96,-20.208 -80.499,-78.073 -77.488,-130.945 10.54,-186.877 307.438,-216.559 326.762,-472.224 -5.543,-254.91 -542.716,-253.847 -713.471,-4.254 -0.914,1.162 -1.828,2.324 -2.698,3.478 -5.955,7.599 -11.834,14.869 -17.56,21.749 -17.359,21.125 -33.655,39.21 -48.989,54.681 -7.229,7.293 -14.346,13.978 -21.314,20.231 -26.6,23.643 -51.504,39.843 -74.808,50.285 7.373,40.662 30.077,81.969 54.042,125.706 6.831,12.551 13.962,25.497 20.631,38.395 4.266,8.194 35.465,41.46 39.406,49.85 95.189,-67.289 209.755,-126.687 212.533,-128.013 63.36,-29.167 112.332,-54.779 176.755,-82.338 29.623,-12.648 62.138,-17.704 93.784,-11.811 114.303,21.097 0.895,114.99 -88.816,166.448 -167.613,96.221 -91.315,362.601 109.684,403.674 C 113.4,313.443 459.058,-80.164 120.201,-313.382 30.186,-379.559 -314.138,-223.146 0,0"
             style="fill:#544add;fill-opacity:1;fill-rule:nonzero;stroke:none"
             id="path2992" />
        </g>
        <g
           id="g2994"
           transform="translate(459.7896,1107.2781)">
          <path
             d="m 0,0 c -77.581,-139.927 -167.161,-226.049 -285.878,-322.365 -23.375,-18.964 -48.392,-37.552 -58.284,-68.732 -4.854,-15.3 -3.399,-31.937 3.744,-46.494 27.18,-55.398 266.076,12.591 355.064,24.653 42.663,5.783 92.784,23.891 126.981,-3.864 8.331,-6.761 11.061,-31.496 -10.75,-43.072 -142.717,-75.741 -252.77,-96.212 -293.67,-111.072 -89.647,-32.729 -123.726,-90.255 -124.737,-189.266 -1.391,-98.835 1.447,-248.651 94.99,-332.819 155.635,-140.039 299.841,-153.092 343.477,-126.576 41.757,25.374 63.875,63.163 65.511,114.389 2.45,76.676 -27.624,154.629 -80.505,208.669 -60.495,68.242 -234.776,129.311 -227.229,238.287 6.321,91.28 360.846,161.914 462.803,300.505 10.466,14.229 20.074,31.661 8.467,51.143 -3.658,6.141 -8.99,11.076 -15.077,14.441 -18.662,10.316 -39.185,7.452 -58.851,4.533 -107.322,-15.929 -216.507,-48.427 -323.828,-64.356 -30.976,-4.597 -67.281,-12.337 -92.669,6.276 -10.893,7.985 -24.154,62.468 72.172,73.032 143.862,15.776 333.748,80.809 433.291,160.496 40.416,32.355 135.779,156.029 59.93,241.001 -25.877,28.989 -61.674,45.865 -98.726,51.698 C 193.289,206.005 84.612,136.93 0,0"
             style="fill:#544add;fill-opacity:1;fill-rule:nonzero;stroke:none"
             id="path2996" />
        </g>
      </g>
    </g>
    <g
       id="g2998">
      <g
         id="g3000"
         clip-path="url(#clipPath3004)">
        <g
           id="g3006"
           transform="translate(117.2691,405.3867)">
          <path
             d="m 0,0 c 38.239,121.491 92.722,40.732 92.722,40.732 58.909,34.139 47.796,63.696 -18.631,34.43 C 29.334,180.471 -62.519,43.417 -16.045,9.677 -90.922,-52.323 -57.14,-59.736 0,0"
             style="fill:#ff2c2c;fill-opacity:1;fill-rule:nonzero;stroke:none"
             id="path3008" />
        </g>
        <g
           id="g3010"
           transform="translate(747.4625,354.9995)">
          <path
             d="M 0,0 C 9.192,129.56 144.379,65.626 108.798,114.349 97.108,130.356 81.453,144.454 59.957,147.16 -12.683,156.302 -33.597,48.533 -29.415,2.108 -24.887,-16.175 -0.748,-10.545 0,0"
             style="fill:#ff2c2c;fill-opacity:1;fill-rule:nonzero;stroke:none"
             id="path3012" />
        </g>
        <g
           id="g3014"
           transform="translate(469.4791,919.927)">
          <path
             d="m 0,0 c -26.838,-67.051 -87.586,-10.271 -77.005,-42.106 3.476,-10.459 9.375,-20.58 20.3,-25.657 C -19.788,-84.922 9.562,-31.398 15.22,-6.104 15.922,4.346 2.185,5.458 0,0"
             style="fill:#ff2c2c;fill-opacity:1;fill-rule:nonzero;stroke:none"
             id="path3016" />
        </g>
      </g>
    </g>
  </g>
</svg>
